<svg width="240" height="19" viewBox="0 0 240 19" fill="none" xmlns="http://www.w3.org/2000/svg">
<path d="M5.04372 18.9604H0L3.24377 0.0148926H8.28748L5.04372 18.9604Z" fill="black"/>
<path d="M25.6757 18.9604H20.6946L23.1009 5.00288H10.5879L11.3916 0.0148926H41.3892L40.5277 5.00288H28.0773L25.6757 18.9604Z" fill="black"/>
<path d="M67.4405 11.8558H47.7084C47.0547 11.8629 46.4043 11.7596 45.7834 11.5499C45.2263 11.3576 44.7137 11.0503 44.277 10.647C43.8547 10.2804 43.5245 9.81507 43.3144 9.29024C43.1116 8.74238 43.0682 8.14598 43.1893 7.5733L43.2615 7.07993H68.0036C68.659 7.07169 69.3107 7.18191 69.9287 7.40556C70.4831 7.60332 70.9971 7.9044 71.4447 8.29363C71.8627 8.65782 72.1839 9.12458 72.3784 9.6504C72.5826 10.2024 72.6374 10.8008 72.5372 11.3821L72.0559 14.0611C71.9346 14.8097 71.6518 15.521 71.2281 16.1432C70.8104 16.7394 70.2901 17.2527 69.6929 17.6578C69.0793 18.0847 68.408 18.4172 67.7004 18.6446C66.9926 18.8683 66.2562 18.9831 65.5155 18.985H41.2354L42.0776 14.0513H67.0507L67.4405 11.8558ZM73.6345 4.94857H43.6321C43.7709 4.22023 44.0597 3.53063 44.4791 2.92575C44.8979 2.3138 45.4174 1.78124 46.0144 1.35189C46.6166 0.917294 47.2828 0.584177 47.9876 0.365148C48.7007 0.134854 49.4441 0.0183718 50.1918 0.0197882H74.4575L73.6345 4.94857Z" fill="black"/>
<path d="M79.3279 18.9603H74.3179L76.3633 7.11938H101.336L101.688 4.98802H76.7194L77.5664 0.0543031H101.832C102.539 0.0502126 103.242 0.166932 103.911 0.399663C104.526 0.601665 105.095 0.927029 105.586 1.3568C106.047 1.76845 106.394 2.29779 106.592 2.89119C106.807 3.54873 106.855 4.25183 106.731 4.93375L106.25 7.61275C106.134 8.23804 105.875 8.82629 105.495 9.32969C105.099 9.85133 104.628 10.3087 104.099 10.6865C103.544 11.0791 102.932 11.3773 102.285 11.5696C101.626 11.7731 100.942 11.8762 100.254 11.8755H80.5215L79.3279 18.9603Z" fill="black"/>
<path d="M139.785 4.94855L138.231 14.0957C138.101 14.8389 137.812 15.5433 137.384 16.158C136.966 16.7529 136.448 17.266 135.853 17.6726C135.237 18.0986 134.565 18.4309 133.856 18.6593C133.148 18.8835 132.412 18.9982 131.671 18.9998H113.099C112.386 19.0058 111.677 18.8908 111 18.6593C110.392 18.4427 109.83 18.1077 109.345 17.6726C108.886 17.2666 108.539 16.7443 108.339 16.158C108.122 15.4931 108.085 14.7802 108.233 14.0957L109.802 4.94855C109.944 4.20291 110.249 3.49971 110.692 2.8912C111.124 2.27641 111.663 1.748 112.281 1.33214C112.9 0.906939 113.576 0.574669 114.287 0.345399C114.967 0.120557 115.676 0.00407831 116.391 3.85269e-05H134.939C135.613 -0.00243697 136.282 0.1144 136.917 0.345399C137.53 0.564247 138.098 0.89893 138.592 1.33214C139.071 1.75122 139.44 2.28739 139.665 2.8912C139.899 3.5505 139.941 4.26532 139.785 4.94855V4.94855ZM131.671 4.94855H117.911C117.011 4.87633 116.116 5.13907 115.39 5.68861C114.804 6.24623 114.423 6.99365 114.312 7.80518L113.748 11.0614C113.585 12.0745 113.691 12.8096 114.066 13.2668C114.441 13.7207 115.197 13.9526 116.323 13.9526H130.15C131.283 13.9526 132.117 13.7108 132.653 13.2273C133.243 12.6551 133.617 11.8884 133.712 11.0614L134.279 7.80518C134.377 7.4485 134.397 7.07432 134.339 6.70875C134.281 6.34319 134.146 5.99504 133.943 5.68861C133.558 5.21498 132.802 4.94855 131.671 4.94855Z" fill="black"/>
<path d="M145.498 18.9603H140.493L142.538 7.11941H167.506L167.863 4.98804H142.889L143.736 0.0543271H168.002C168.711 0.0497798 169.415 0.166504 170.086 0.399687C170.7 0.603948 171.269 0.929077 171.761 1.35683C172.221 1.75602 172.571 2.27132 172.776 2.85174C172.991 3.50933 173.041 4.21183 172.921 4.8943L172.463 7.57331C172.345 8.19892 172.085 8.78712 171.703 9.29024C170.892 10.367 169.768 11.1514 168.493 11.5301C167.836 11.7337 167.153 11.8368 166.467 11.836H166.217L170.485 18.9603H164.951L160.35 11.8558H146.735L145.498 18.9603Z" fill="black"/>
<path d="M191.108 18.9604H186.098L188.504 5.00288H175.991L176.824 0.0148926H206.802L205.955 5.00288H193.505L191.108 18.9604Z" fill="black"/>
<path d="M232.868 11.8552H213.136C212.482 11.8617 211.832 11.7584 211.211 11.5494C210.645 11.3658 210.123 11.0652 209.675 10.6662C209.265 10.2949 208.945 9.83025 208.742 9.30944C208.541 8.7611 208.498 8.16534 208.617 7.59251L208.689 7.09914H233.416C234.071 7.08752 234.723 7.19441 235.342 7.4149C235.896 7.61151 236.411 7.9127 236.858 8.30297C237.288 8.67399 237.617 9.15464 237.809 9.69671C238.002 10.2388 238.052 10.8232 237.955 11.3915L237.474 14.0705C237.343 14.8127 237.056 15.5167 236.631 16.1328C236.212 16.7279 235.692 17.241 235.096 17.6474C234.481 18.0725 233.81 18.4049 233.104 18.6342C232.394 18.8579 231.656 18.9726 230.914 18.9746H206.663L207.51 14.0409H232.483L232.868 11.8552ZM239.042 4.94804H209.059C209.198 4.21348 209.486 3.51733 209.906 2.90548C210.325 2.29354 210.845 1.76098 211.442 1.33163C212.046 0.897866 212.714 0.564837 213.42 0.344885C214.129 0.120724 214.867 0.00924457 215.609 0.0143264H239.875L239.042 4.94804Z" fill="black"/>
</svg>
